<?xml version="1.0" standalone="no"?>
<!DOCTYPE svg PUBLIC "-//W3C//DTD SVG 20010904//EN"
 "http://www.w3.org/TR/2001/REC-SVG-20010904/DTD/svg10.dtd">
<svg version="1.0" xmlns="http://www.w3.org/2000/svg"
 width="733.000000pt" height="788.000000pt" viewBox="0 0 733.000000 788.000000"
 preserveAspectRatio="xMidYMid meet">
<metadata>
Created by potrace 1.15, written by Peter Selinger 2001-2017
</metadata>
<g transform="translate(0.000000,788.000000) scale(0.100000,-0.100000)"
fill="#74b1be" stroke="none">
<path d="M3540 7773 c-183 -38 -346 -211 -380 -403 -53 -295 183 -578 483
-580 85 0 187 26 254 66 68 41 144 112 169 160 10 19 21 34 24 34 3 0 30 -16
60 -36 494 -325 901 -1143 1070 -2154 70 -419 95 -767 87 -1240 -9 -573 -71
-1041 -203 -1525 -25 -93 -49 -183 -53 -200 -25 -103 93 -178 168 -107 32 30
50 80 105 292 318 1226 260 2705 -149 3805 -227 610 -539 1063 -899 1303 -59
40 -111 72 -115 72 -4 0 -13 39 -20 88 -24 172 -122 307 -278 384 -81 40 -87
42 -191 44 -59 1 -118 0 -132 -3z m229 -232 c60 -31 100 -69 129 -125 36 -69
38 -189 5 -251 -33 -61 -77 -104 -138 -131 -188 -86 -393 47 -395 258 0 70 46
166 102 211 83 67 209 83 297 38z"/>
<path d="M1695 6193 c-304 -25 -591 -102 -782 -209 -216 -121 -393 -311 -480
-518 -68 -161 -78 -218 -78 -446 0 -190 3 -214 29 -325 15 -65 46 -171 69
-235 52 -146 189 -423 224 -450 50 -39 132 -21 162 37 20 39 12 68 -62 214
-87 171 -147 332 -184 489 -34 149 -38 360 -10 485 95 409 467 672 1039 734
223 25 594 10 870 -35 121 -20 152 -14 181 35 39 66 9 142 -63 161 -174 47
-687 82 -915 63z"/>
<path d="M5354 6159 c-23 -24 -29 -39 -29 -75 0 -39 5 -50 33 -75 28 -25 40
-29 90 -29 170 0 448 -44 607 -95 299 -97 514 -279 613 -518 87 -209 86 -484
-4 -769 -89 -282 -279 -616 -519 -911 -84 -105 -90 -115 -90 -159 0 -112 120
-143 199 -51 125 145 297 389 388 548 284 497 372 943 262 1323 -114 393 -454
676 -945 786 -145 33 -344 56 -475 56 -99 0 -101 0 -130 -31z"/>
<path d="M4345 6051 c-1278 -330 -2602 -1164 -3360 -2116 -265 -333 -434 -627
-540 -937 -61 -182 -84 -303 -92 -479 l-6 -147 -48 -36 c-93 -69 -163 -179
-188 -294 -59 -277 126 -547 406 -594 251 -42 506 127 562 372 16 67 13 189
-5 251 -62 210 -251 358 -458 359 l-58 0 7 92 c38 517 355 1079 935 1658 367
367 745 660 1225 947 562 337 1121 573 1708 722 111 29 195 55 207 66 42 38
42 117 1 158 -34 35 -92 31 -296 -22z m-3651 -3851 c64 -25 125 -81 158 -148
33 -68 31 -168 -5 -238 -29 -58 -82 -108 -141 -135 -51 -23 -162 -25 -213 -4
-194 81 -237 330 -81 470 82 73 181 92 282 55z"/>
<path d="M3522 4083 c-194 -77 -286 -307 -197 -495 29 -62 100 -135 161 -166
179 -91 406 -12 490 170 25 55 29 75 29 153 0 82 -3 97 -33 157 -36 74 -95
133 -170 169 -63 31 -215 37 -280 12z"/>
<path d="M1187 3490 c-34 -27 -51 -78 -37 -115 26 -69 351 -386 623 -609 720
-588 1584 -1045 2432 -1286 861 -244 1619 -240 2126 11 l75 37 71 -35 c277
-137 621 16 698 312 46 178 -8 371 -137 491 -100 92 -207 134 -343 134 -139 0
-252 -46 -345 -139 -73 -73 -116 -148 -136 -240 -26 -117 -15 -211 40 -342 6
-13 -10 -23 -76 -52 -395 -168 -905 -189 -1533 -62 -955 193 -1989 710 -2816
1406 -74 63 -224 202 -333 311 -196 194 -200 198 -241 198 -27 0 -51 -7 -68
-20z m5607 -1290 c111 -42 181 -144 180 -265 -1 -157 -119 -275 -276 -275 -83
0 -142 24 -198 80 -116 116 -111 295 12 405 82 73 181 92 282 55z"/>
<path d="M2141 1764 c-53 -48 -51 -78 14 -244 241 -612 577 -1059 959 -1278
276 -159 596 -189 891 -85 254 90 534 321 742 614 89 125 143 219 143 248 0
71 -76 124 -144 101 -27 -9 -46 -29 -87 -93 -142 -218 -303 -402 -454 -515
-85 -64 -266 -154 -355 -177 -111 -28 -260 -30 -370 -6 -450 100 -866 586
-1154 1347 -32 86 -51 105 -109 111 -38 5 -48 1 -76 -23z"/>
</g>
</svg>
